# xmcd
#
# Track frame offsets:
#	150
#	14479
#	32561
#	46564
#	67464
#	85131
#	103086
#	122551
#	138331
#	156104
#	171399
#	190311
#
# Disc length: 2848 seconds
#
# Revision: 3863407692
# Processed by: cddbd v1.5.2PL0 Copyright (c) Steve Scherf et al.
# Submitted via: EZCDAudioConverter 8.5.0.1
#
DISCID=a10b1e0c
DTITLE=Brooks and Dunn - Reboot
DYEAR=2019
DGENRE=Country
TTITLE0=Brooks and Dunn Feat. Luke Combs - Brand New Man
TTITLE1=Brooks and Dunn Feat. Brett Young - Ain't Nothing 'bout You
TTITLE2=Brooks and Dunn Feat. Jon Pardi - My Next Broken Heart
TTITLE3=Brooks and Dunn Feat. Kacey Musgraves - Neon Moon
TTITLE4=Brooks and Dunn Feat. Tyler Booth - Lost And Found
TTITLE5=Brooks and Dunn Feat. Brothers Osborne - Hard Workin' Man
TTITLE6=Brooks and Dunn Feat. Ashley Mcbryde - You're Gonna Miss Me When I'm Gon
TTITLE6=e
TTITLE7=Brooks and Dunn Feat. Thomas Rhett - My Maria
TTITLE8=Brooks and Dunn Feat. Cody Johnson - Red Dirt Road
TTITLE9=Brooks and Dunn Feat. Midland - Boot Scootin' Boogie
TTITLE10=Brooks and Dunn Feat. Lanco - Mama Don't Get Dressed Up For Nothing
TTITLE11=Brooks and Dunn Feat. Kane Brown - Believe
EXTD=
EXTT0=
EXTT1=
EXTT2=
EXTT3=
EXTT4=
EXTT5=
EXTT6=
EXTT7=
EXTT8=
EXTT9=
EXTT10=
EXTT11=
PLAYORDER=
